<?xml version="1.0" encoding="iso-8859-1"?>
<!-- Generator: Adobe Illustrator 21.0.0, SVG Export Plug-In . SVG Version: 6.00 Build 0)  -->
<svg version="1.1" id="Capa_1" xmlns="http://www.w3.org/2000/svg" xmlns:xlink="http://www.w3.org/1999/xlink" x="0px" y="0px"
	 viewBox="0 0 508.846 508.846" style="enable-background:new 0 0 508.846 508.846;" xml:space="preserve">
<g>
	<g>
		<g>
			<path d="M53.28,152.274v52.599c2.542,3.182,16.777,16.859,71.781,12.352c-9.574-48.616-22.917-96.413-39.909-142.958
				C73.394,82.981,53.28,104.795,53.28,152.274z"/>
			<polygon points="300.137,156.526 318.423,168.713 336.709,156.526 336.709,115.694 300.137,115.703 			"/>
			<path d="M254.423,78.473c39.131-14.729,57.39-55.771,62.665-70.034L308.649,0c-16.418,9.754-35.13,14.976-54.226,15.131
				c-19.079-0.152-37.779-5.34-54.208-15.04l-8.439,8.366C197.115,22.775,215.483,63.799,254.423,78.473z"/>
			<path d="M423.694,74.277c-16.991,46.53-30.334,94.311-39.909,142.912c54.153,4.443,68.791-8.768,71.781-12.535v-52.379
				C455.566,104.795,435.451,82.981,423.694,74.277z"/>
			<path d="M354.994,316.846c0-103.314,39.936-217.984,52.114-250.514c-27.456-10.643-52.994-25.688-75.611-44.544
				c-8.841,20.955-30.775,60.718-74.176,75.182c-1.847,0.61-3.84,0.61-5.687,0c-43.401-14.464-65.335-54.226-74.176-75.182
				c-22.651,18.866-48.227,33.912-75.721,44.544c12.178,32.53,52.114,147.2,52.114,250.514
				c0.756,57.004-4.267,113.938-14.994,169.929c-1.008,4.616,1.703,9.231,6.226,10.597c17.435,5.23,50.56,11.474,109.339,11.474
				s91.904-6.245,109.349-11.474c4.519-1.37,7.226-5.983,6.217-10.597C359.262,430.784,354.238,373.85,354.994,316.846z
				 M135.566,88.274c-4.487,0.003-8.313-3.25-9.032-7.68s1.884-8.725,6.143-10.14c11.786-3.563,22.926-8.989,32.997-16.073
				c3.587-3.465,9.29-3.415,12.817,0.111c3.527,3.527,3.576,9.229,0.111,12.817c-10.368,10.368-37.129,19.493-40.146,20.498
				C137.523,88.118,136.548,88.275,135.566,88.274z M162.802,154.011c-0.078,0.606-0.26,1.194-0.539,1.737
				c-0.204,0.581-0.48,1.134-0.823,1.646c-0.338,0.479-0.704,0.937-1.097,1.371c-3.605,3.536-9.378,3.536-12.983,0
				c-0.393-0.434-0.76-0.892-1.097-1.371c-0.336-0.531-0.641-1.08-0.914-1.646c-0.199-0.565-0.349-1.146-0.448-1.737
				c-0.154-0.565-0.219-1.152-0.192-1.737c-0.007-2.429,0.946-4.762,2.651-6.491c2.616-2.637,6.567-3.43,9.998-2.006
				s5.658,4.783,5.637,8.497C162.98,152.858,162.916,153.439,162.802,154.011z M190.001,155.179
				c-0.77,2.323-2.439,4.241-4.634,5.324v-0.091c-2.17,1.085-4.682,1.263-6.984,0.495s-4.203-2.42-5.286-4.591l-9.143-18.286
				c-2.257-4.519-0.423-10.013,4.096-12.27c4.519-2.257,10.013-0.423,12.27,4.096l9.143,18.286
				C190.577,150.321,190.771,152.856,190.001,155.179z M217.429,155.179c-0.77,2.323-2.439,4.241-4.634,5.324v-0.091
				c-2.17,1.085-4.682,1.263-6.984,0.495s-4.203-2.42-5.286-4.591l-18.286-36.571c-2.257-4.519-0.423-10.013,4.096-12.27
				c4.519-2.257,10.013-0.423,12.27,4.096l18.286,36.571C218.006,150.321,218.199,152.856,217.429,155.179z M330.245,54.382v-0.027
				c3.57-3.569,9.358-3.569,12.928,0c10.069,7.088,21.209,12.514,32.997,16.073c4.797,1.596,7.392,6.778,5.797,11.575
				s-6.778,7.392-11.575,5.797c-3.017-1.006-29.778-10.13-40.146-20.498C326.681,63.731,326.681,57.951,330.245,54.382z
				 M346.848,171.739v-0.027l-18.286,12.187c-6.134,4.102-14.136,4.102-20.27,0l-18.286-12.197
				c-5.081-3.381-8.14-9.074-8.155-15.177v-40.823c0-10.099,8.187-18.286,18.286-18.286h36.571c10.099,0,18.286,8.187,18.286,18.286
				v40.823C354.993,162.64,351.936,168.349,346.848,171.739z"/>
		</g>
	</g>
</g>
<g>
</g>
<g>
</g>
<g>
</g>
<g>
</g>
<g>
</g>
<g>
</g>
<g>
</g>
<g>
</g>
<g>
</g>
<g>
</g>
<g>
</g>
<g>
</g>
<g>
</g>
<g>
</g>
<g>
</g>
</svg>
