<?xml version="1.0" encoding="iso-8859-1"?>
<!-- Generator: Adobe Illustrator 21.0.0, SVG Export Plug-In . SVG Version: 6.00 Build 0)  -->
<svg version="1.1" id="Capa_1" xmlns="http://www.w3.org/2000/svg" xmlns:xlink="http://www.w3.org/1999/xlink" x="0px" y="0px"
	 viewBox="0 0 508.846 508.846" style="enable-background:new 0 0 508.846 508.846;" xml:space="preserve">
<g>
	<g>
		<g>
			<path d="M254.419,51.703c46.199,0,59.639-31.177,63.086-42.871L308.673,0c-16.426,9.759-35.148,14.981-54.254,15.131
				c-19.079-0.152-37.779-5.34-54.208-15.04l-8.814,8.731C194.926,20.507,208.613,51.703,254.419,51.703z"/>
			<path d="M149.697,255.698c2.651,20.277,4.038,40.699,4.151,61.147c0,31.305-1.262,58.807-3.127,82.459
				C307.447,190.034,407.105,119.003,443.539,97.874c-5.998-12.284-15.809-22.297-27.968-28.544
				c-16.384-5.573-32.153-12.812-47.058-21.605C337.326,69.431,229.322,148.617,149.697,255.698z M309.276,112.421
				c0.075-8.348,6.893-15.059,15.241-15.003h24.375c8.348-0.056,15.166,6.656,15.241,15.003v26.139
				c-0.003,5.099-2.614,9.842-6.921,12.571l-12.187,7.817c-5.073,3.242-11.567,3.242-16.64,0l-12.187-7.817
				c-4.307-2.729-6.918-7.472-6.921-12.571V112.421z"/>
			<polygon points="188.261,124.846 172.133,116.782 156.005,124.846 172.133,132.91 			"/>
			<path d="M351.827,37.074c-8.229-5.614-14.939-10.853-19.977-15.049c-8.018,18.505-28.48,47.963-77.431,47.963
				s-69.403-29.449-77.431-47.918c-24.836,20.65-53.19,36.656-83.703,47.25c-1.883,0.795-40.009,17.71-40.009,82.953v52.599
				c2.542,3.182,16.777,16.859,71.826,12.352c-2.182-11.514-4.706-23.317-7.57-35.41c-0.755-3.178,0.244-6.518,2.619-8.76
				c2.375-2.243,5.766-3.048,8.896-2.112s5.522,3.47,6.277,6.648c4.322,18.249,7.884,35.855,10.688,52.818
				C205.564,156.959,274.799,91.921,351.827,37.074z M131.475,133.074c-0.295-0.207-0.579-0.43-0.85-0.667
				c-0.529-0.332-1.02-0.721-1.463-1.161c-0.434-0.453-0.82-0.949-1.152-1.481c-0.233-0.26-0.45-0.535-0.649-0.823
				c-0.091-0.192-0.082-0.411-0.165-0.613c-0.223-0.591-0.386-1.204-0.485-1.829c-0.293-1.09-0.293-2.238,0-3.328
				c0.099-0.624,0.261-1.237,0.485-1.829c0.082-0.201,0.073-0.421,0.165-0.613c0.199-0.288,0.416-0.563,0.649-0.823
				c0.333-0.526,0.719-1.016,1.152-1.463c0.439-0.426,0.924-0.803,1.445-1.125c0.271-0.237,0.555-0.46,0.85-0.667l36.571-18.286
				c2.573-1.286,5.601-1.286,8.174,0l36.571,18.286c0.295,0.207,0.579,0.43,0.85,0.667c0.521,0.321,1.005,0.698,1.445,1.125
				c0.434,0.453,0.82,0.949,1.152,1.481c0.234,0.26,0.45,0.535,0.649,0.823c0.091,0.192,0.082,0.411,0.165,0.613
				c0.223,0.591,0.386,1.204,0.485,1.829c0.293,1.09,0.293,2.238,0,3.328c-0.099,0.624-0.261,1.237-0.485,1.829
				c-0.082,0.201-0.073,0.421-0.165,0.613c-0.281,0.494-0.605,0.962-0.969,1.399c-0.146,0.183-0.238,0.384-0.393,0.558
				c-0.713,0.795-1.561,1.457-2.505,1.957c-0.091,0-0.137,0.137-0.229,0.183l-36.571,18.286c-2.573,1.286-5.601,1.286-8.174,0
				L131.475,133.074z"/>
			<polygon points="345.848,136.731 345.848,115.703 327.562,115.703 327.562,136.731 336.705,142.592 			"/>
			<path d="M450.46,114.999c-38.19,22.647-140.69,97.792-303.241,319.79c-2.743,23.013-5.934,40.439-8.366,52.023
				c-1.008,4.616,1.703,9.231,6.226,10.597c17.435,5.193,50.56,11.438,109.339,11.438s91.904-6.245,109.349-11.474
				c4.519-1.37,7.226-5.983,6.217-10.597c-10.727-55.991-15.751-112.925-14.994-169.929c0.472-37.499,4.633-74.86,12.425-111.543
				c0.653-3.203,2.966-5.814,6.066-6.849c3.1-1.036,6.518-0.339,8.965,1.829c2.447,2.167,3.552,5.475,2.899,8.678
				c-0.567,2.825-0.969,5.486-1.499,8.283c54.126,4.425,68.727-8.777,71.717-12.544v-52.425
				C455.702,139.666,453.983,127.106,450.46,114.999z"/>
		</g>
	</g>
</g>
<g>
</g>
<g>
</g>
<g>
</g>
<g>
</g>
<g>
</g>
<g>
</g>
<g>
</g>
<g>
</g>
<g>
</g>
<g>
</g>
<g>
</g>
<g>
</g>
<g>
</g>
<g>
</g>
<g>
</g>
</svg>
