<?xml version="1.0" encoding="iso-8859-1"?>
<!-- Generator: Adobe Illustrator 21.0.0, SVG Export Plug-In . SVG Version: 6.00 Build 0)  -->
<svg version="1.1" id="Capa_1" xmlns="http://www.w3.org/2000/svg" xmlns:xlink="http://www.w3.org/1999/xlink" x="0px" y="0px"
	 viewBox="0 0 509.016 509.016" style="enable-background:new 0 0 509.016 509.016;" xml:space="preserve">
<g>
	<g>
		<g>
			<path d="M312.156,158.082l11.375,7.296c4.735,3.026,10.796,3.026,15.531,0l11.375-7.296c4.02-2.547,6.457-6.974,6.46-11.733
				v-24.397c-0.07-7.791-6.434-14.055-14.225-14.003h-22.75c-7.791-0.052-14.155,6.212-14.225,14.003v24.397
				C305.699,151.108,308.136,155.535,312.156,158.082z M322.763,125.016h17.067v19.627l-8.533,5.47l-8.533-5.47V125.016z"/>
			<path d="M449.764,108.188c0-0.06,0-0.119-0.051-0.171l-0.043-0.068c-7.1-18.327-20.797-33.336-38.4-42.078
				c-0.077,0-0.162,0-0.247,0s-0.137-0.094-0.222-0.128c-15.895-5.413-31.118-12.628-45.372-21.504l-0.094-0.06
				c-13.077-7.928-25.309-17.172-36.506-27.588L317.182,4.969c-5.866-5.836-15.073-6.624-21.845-1.869
				c-12.467,7.053-26.518,10.831-40.841,10.982c-14.322-0.151-28.372-3.926-40.841-10.974c-6.766-4.755-15.968-3.975-21.837,1.852
				l-11.622,11.622C156.555,38.454,128.635,55.185,98.2,65.717c-0.085,0-0.145,0.102-0.222,0.128c-0.077,0.026-0.171,0-0.247,0
				c-1.954,0.836-48.034,20.096-48.034,93.303v51.2c0.002,0.917,0.152,1.827,0.444,2.697c1.527,4.608,11.29,24.653,64.358,24.653
				c6.707,0,14.131-0.324,22.298-1.041c0.973,5.973,1.843,11.847,2.611,17.621c0,0.205,0,0.401,0.077,0.606
				c2.608,19.18,3.97,38.508,4.079,57.865c0.7,52.023-3.875,103.984-13.653,155.085c-2.822,12.995,4.855,25.967,17.604,29.747
				c17.382,5.214,50.057,11.435,106.982,11.435c56.926,0,89.6-6.221,106.965-11.435c12.752-3.773,20.437-16.742,17.621-29.739
				c-9.778-51.104-14.353-103.067-13.653-155.093c0.24-25.505,2.523-50.951,6.827-76.092c8.149,0.717,15.548,1.041,22.246,1.041
				c53.06,0,62.831-20.045,64.358-24.653c0.289-0.87,0.436-1.78,0.435-2.697v-51.2C459.628,141.69,456.385,124.347,449.764,108.188z
				 M404.905,81.734c11.348,5.831,20.505,15.176,26.104,26.641c-34.005,19.721-127.019,86.016-273.297,281.336
				c1.707-22.076,2.918-47.744,2.918-76.962c-0.106-19.086-1.399-38.146-3.874-57.071c74.317-99.942,175.121-173.85,204.228-194.108
				C374.896,69.776,389.613,76.533,404.905,81.734z M203.902,17.112c15.334,9.053,32.787,13.896,50.594,14.037
				c17.823-0.145,35.288-5.019,50.611-14.123l8.243,8.243c-3.191,10.914-15.735,40.013-58.854,40.013
				c-42.752,0-55.526-29.116-58.82-40.021L203.902,17.112z M143.341,182.778c-1.089-4.586-5.689-7.42-10.274-6.332
				c-4.586,1.089-7.42,5.689-6.332,10.274c2.679,11.298,5.035,22.315,7.066,33.05c-51.379,4.233-64.666-8.567-67.038-11.529v-49.092
				c0-60.894,35.584-76.681,37.342-77.423c28.478-9.888,54.942-24.827,78.123-44.1c7.492,17.237,26.59,44.723,72.269,44.723
				s64.785-27.494,72.269-44.732c4.702,3.917,10.999,8.806,18.645,14.046c-71.89,51.18-136.51,111.87-192.094,180.412
				C150.677,216.237,147.352,199.805,143.341,182.778z M442.23,208.07c-2.79,3.516-16.418,15.838-66.935,11.708
				c0.495-2.56,0.853-5.12,1.399-7.731c0.61-2.989-0.422-6.077-2.705-8.099s-5.473-2.673-8.367-1.707
				c-2.894,0.967-5.052,3.403-5.661,6.393c-7.273,34.24-11.157,69.114-11.597,104.115c-0.706,53.204,3.983,106.342,13.995,158.601
				c0.942,4.306-1.585,8.612-5.803,9.89c-16.282,4.881-47.198,10.709-102.059,10.709c-54.861,0-85.777-5.828-102.05-10.709
				c-4.221-1.275-6.752-5.582-5.811-9.89c2.27-10.812,5.205-27.076,7.808-48.555c151.714-207.164,247.381-277.333,283.025-298.436
				c3.288,11.3,4.892,23.023,4.762,34.79V208.07z"/>
			<path d="M181.511,158.27l34.133-17.067c0.085,0,0.128-0.128,0.213-0.171c0.881-0.466,1.672-1.084,2.338-1.826
				c0.145-0.162,0.23-0.35,0.367-0.521c0.34-0.407,0.643-0.844,0.905-1.306c0.085-0.179,0.077-0.384,0.154-0.572
				c0.209-0.552,0.36-1.124,0.452-1.707c0.274-1.017,0.274-2.089,0-3.106c-0.092-0.583-0.244-1.155-0.452-1.707
				c-0.077-0.188-0.068-0.393-0.154-0.572c-0.186-0.268-0.388-0.525-0.606-0.768c-0.305-0.493-0.659-0.953-1.058-1.374
				c-0.41-0.398-0.862-0.75-1.348-1.05c-0.253-0.222-0.518-0.43-0.794-0.623l-34.133-17.067c-2.401-1.2-5.227-1.2-7.629,0
				l-34.133,17.067c-0.275,0.193-0.54,0.401-0.794,0.623c-0.486,0.3-0.938,0.652-1.348,1.05c-0.405,0.422-0.766,0.886-1.075,1.382
				c-0.218,0.243-0.42,0.5-0.606,0.768c-0.085,0.179-0.077,0.384-0.154,0.572c-0.209,0.552-0.36,1.124-0.452,1.707
				c-0.274,1.017-0.274,2.089,0,3.106l-0.017-0.009c0.092,0.583,0.244,1.155,0.452,1.707c0.077,0.188,0.068,0.393,0.154,0.572
				c0.186,0.268,0.388,0.525,0.606,0.768c0.31,0.497,0.67,0.96,1.075,1.382c0.41,0.398,0.862,0.75,1.348,1.05
				c0.253,0.222,0.518,0.43,0.794,0.623l34.133,17.067C176.283,159.47,179.109,159.47,181.511,158.27z M177.696,126.023
				l15.053,7.526l-15.053,7.526l-15.053-7.526L177.696,126.023z"/>
		</g>
	</g>
</g>
<g>
</g>
<g>
</g>
<g>
</g>
<g>
</g>
<g>
</g>
<g>
</g>
<g>
</g>
<g>
</g>
<g>
</g>
<g>
</g>
<g>
</g>
<g>
</g>
<g>
</g>
<g>
</g>
<g>
</g>
</svg>
