<?xml version="1.0" encoding="iso-8859-1"?>
<!-- Generator: Adobe Illustrator 21.0.0, SVG Export Plug-In . SVG Version: 6.00 Build 0)  -->
<svg version="1.1" id="Capa_1" xmlns="http://www.w3.org/2000/svg" xmlns:xlink="http://www.w3.org/1999/xlink" x="0px" y="0px"
	 viewBox="0 0 500.708 500.708" style="enable-background:new 0 0 500.708 500.708;" xml:space="preserve">
<g>
	<g>
		<g>
			<path d="M404.55,64.811c-0.084,0-0.168,0-0.243,0s-0.134-0.101-0.218-0.126c-29.914-10.395-57.366-26.841-80.644-48.313
				L312.012,4.882c-5.772-5.738-14.828-6.509-21.487-1.83c-12.262,6.937-26.083,10.654-40.171,10.802
				c-14.087-0.148-27.907-3.862-40.171-10.794c-6.655-4.677-15.706-3.909-21.479,1.821l-11.432,11.432
				c-23.253,21.513-50.716,37.969-80.653,48.329c-0.084,0-0.134,0.101-0.218,0.126c-0.081-0.004-0.162-0.004-0.243,0
				c-1.922,0.823-47.247,19.767-47.247,91.774v50.361c0.002,0.902,0.149,1.797,0.436,2.652c1.502,4.532,11.105,24.249,63.303,24.249
				c6.589,0,13.866-0.319,21.882-1.016c4.234,24.726,6.476,49.751,6.706,74.836c0.688,51.171-3.811,102.279-13.429,152.542
				c-2.78,12.778,4.769,25.537,17.307,29.251c26.031,6.878,52.815,10.501,79.738,10.786c0.092,0,0.168,0.05,0.26,0.05
				s0.117,0,0.176,0c7.772,0.285,16.048,0.453,25.004,0.453c8.956,0,17.232-0.168,25.004-0.453c0.059,0,0.109,0,0.176,0
				s0.168-0.05,0.26-0.05c26.923-0.284,53.707-3.907,79.738-10.786c12.586-3.665,20.195-16.439,17.425-29.251
				c-9.618-50.263-14.118-101.372-13.43-152.542c0.233-25.085,2.478-50.11,6.715-74.836c8.016,0.697,15.293,1.016,21.882,1.016
				c52.19,0,61.801-19.716,63.303-24.249c0.284-0.855,0.429-1.751,0.428-2.652v-50.361C451.797,84.536,406.472,65.592,404.55,64.811
				z M200.589,16.835c15.083,8.905,32.25,13.668,49.765,13.807c17.531-0.143,34.71-4.936,49.782-13.891l7.747,7.747
				c-4.843,13.111-21.605,50.772-57.529,64.294c-35.748-13.471-52.61-51.133-57.512-64.277L200.589,16.835z M65.698,204.831v-48.287
				c0-43.587,18.466-63.614,29.26-71.613c15.6,42.73,27.849,86.609,36.637,131.24C81.1,220.292,68.032,207.777,65.698,204.831z
				 M342.682,307.609c-0.695,52.329,3.917,104.594,13.765,155.992c0.934,4.239-1.558,8.481-5.716,9.728
				c-8.149,2.377-16.446,4.217-24.836,5.506V215.13c0-4.636-3.758-8.393-8.393-8.393s-8.393,3.758-8.393,8.393v265.946
				c-7.462,0.839-15.847,1.486-25.18,1.972V198.343c0-4.636-3.758-8.393-8.393-8.393c-4.636,0-8.393,3.758-8.393,8.393V483.72
				c-5.338,0.134-10.911,0.21-16.787,0.21c-5.875,0-11.449-0.076-16.787-0.21V198.343c0-4.636-3.758-8.393-8.393-8.393
				c-4.636,0-8.393,3.758-8.393,8.393v284.706c-9.333-0.487-17.719-1.167-25.18-1.972V215.13c0-4.636-3.758-8.393-8.393-8.393
				s-8.393,3.758-8.393,8.393v263.705c-8.39-1.284-16.687-3.118-24.836-5.489c-4.158-1.247-6.65-5.489-5.716-9.728
				c9.848-51.399,14.46-103.663,13.765-155.992c0-94.846-36.663-200.116-47.843-229.98c25.209-9.775,48.657-23.592,69.422-40.91
				c8.117,19.238,28.252,55.741,68.096,69.019c1.693,0.571,3.527,0.571,5.221,0c39.844-13.278,59.98-49.781,68.096-69.019
				c20.793,17.317,44.269,31.129,69.506,40.893C379.353,107.509,342.682,212.813,342.682,307.609z M435.01,204.663
				c-2.745,3.458-16.166,15.595-65.897,11.516c8.787-44.631,21.037-88.511,36.637-131.24c10.794,7.991,29.26,28.017,29.26,71.604
				V204.663z"/>
			<path d="M183.213,72.617c0-2.23-0.887-4.368-2.466-5.943c-3.278-3.277-8.591-3.277-11.868,0
				c-9.244,6.506-19.471,11.488-30.292,14.756c-4.404,1.465-6.786,6.222-5.321,10.626c1.465,4.404,6.222,6.786,10.626,5.321
				c2.77-0.923,27.337-9.3,36.856-18.818C182.326,76.985,183.213,74.847,183.213,72.617z"/>
			<path d="M367.7,87.698c-0.604-2.941-2.731-5.336-5.579-6.284c-10.821-3.267-21.049-8.249-30.292-14.756
				c-2.107-2.182-5.228-3.057-8.163-2.289c-2.935,0.768-5.226,3.06-5.995,5.995s0.107,6.055,2.289,8.163
				c9.518,9.535,34.086,17.912,36.856,18.835c2.849,0.948,5.987,0.303,8.232-1.69C367.293,93.678,368.304,90.638,367.7,87.698z"/>
			<path d="M161.245,148.743c-3.149-1.308-6.777-0.58-9.178,1.841c-1.566,1.588-2.441,3.73-2.434,5.959
				c-0.027,0.537,0.029,1.075,0.168,1.595c0.091,0.542,0.229,1.076,0.411,1.595c0.251,0.519,0.531,1.024,0.839,1.511
				c0.312,0.438,0.648,0.859,1.007,1.259c3.31,3.246,8.609,3.246,11.919,0h0.008c0.359-0.4,0.695-0.821,1.007-1.259
				c0.314-0.47,0.568-0.977,0.755-1.511c0.256-0.499,0.424-1.038,0.495-1.595c0.104-0.526,0.163-1.059,0.176-1.595
				C166.439,153.133,164.394,150.05,161.245,148.743z"/>
			<path d="M182.367,136.005c-2.072-4.149-7.115-5.832-11.264-3.76c-4.149,2.072-5.832,7.115-3.76,11.264l8.393,16.787
				c1.34,2.684,4.011,4.449,7.005,4.63s5.858-1.249,7.512-3.752s1.847-5.698,0.507-8.382L182.367,136.005z"/>
			<path d="M199.112,119.218c-1.34-2.684-4.011-4.449-7.005-4.63s-5.858,1.249-7.512,3.752s-1.847,5.698-0.507,8.382l16.787,33.574
				c1.34,2.684,4.011,4.449,7.005,4.63s5.858-1.249,7.512-3.752s1.847-5.698,0.507-8.382L199.112,119.218z"/>
			<path d="M325.895,106.183h-33.574c-9.271,0-16.787,7.516-16.787,16.787v37.468c-0.002,5.616,2.805,10.861,7.479,13.975
				l16.787,11.188c5.632,3.772,12.984,3.772,18.617,0l16.787-11.188c4.674-3.114,7.48-8.359,7.479-13.975V122.97
				C342.682,113.698,335.166,106.183,325.895,106.183z M325.895,160.455l-16.787,11.188l-16.787-11.197V122.97h33.574V160.455z"/>
		</g>
	</g>
</g>
<g>
</g>
<g>
</g>
<g>
</g>
<g>
</g>
<g>
</g>
<g>
</g>
<g>
</g>
<g>
</g>
<g>
</g>
<g>
</g>
<g>
</g>
<g>
</g>
<g>
</g>
<g>
</g>
<g>
</g>
</svg>
